<?xml version="1.0" encoding="UTF-8"?>
<svg id="Ebene_2" data-name="Ebene 2" xmlns="http://www.w3.org/2000/svg" viewBox="0 0 636.96 965.6">
  <defs>
    <style>
      .cls-1 {
        fill: #fff;
      }

      .cls-2 {
        fill: #09dfeb;
      }

      .cls-3 {
        letter-spacing: 0em;
      }

      .cls-4 {
        font-size: 186px;
      }

      .cls-4, .cls-5 {
        font-family: ElzaText-Regular, 'Elza Text';
      }

      .cls-6 {
        letter-spacing: -.08em;
      }

      .cls-5 {
        font-size: 136px;
        opacity: .77;
      }
    </style>
  </defs>
  <text class="cls-4" transform="translate(72.59 709)"><tspan class="cls-6" x="0" y="0">F</tspan><tspan x="93.37" y="0">ARB</tspan></text>
  <path class="cls-2" d="M120.59,492.74V147.14c0-23.16,24.98-37.72,45.13-26.29l304.75,172.8c20.42,11.58,20.42,41,0,52.58l-304.75,172.8c-20.15,11.42-45.13-3.13-45.13-26.29Z"/>
  <text class="cls-5" transform="translate(92.08 820.26)"><tspan class="cls-3" x="0" y="0">S</tspan><tspan x="86.5" y="0">INNE</tspan></text>
  <path class="cls-1" d="M348.86,297.92c-5.03.92-9.9,1.76-14.61,2.5-4.71.74-8.99,1.29-12.83,1.62.33-11.12-3.01-19.61-10-25.45-7.01-5.84-16.76-8.58-29.3-8.21-8.83.26-62.44,6.34-64.32,6.45-10.63.6-21.11,1.32-31.46,2.18-.37.03-.74.06-1.1.09-1.86,21.02-3.39,41.55-4.58,61.56-1.64,27.83-2.7,54.41-3.15,79.74-4.73.14-9.47.42-14.25.84-4.77.42-9.14.9-13.08,1.47.42-26.53,1.5-54,3.24-82.39,1.18-19.39,2.64-38.91,4.37-58.55-10.07,1.12-19.75,2.37-29.03,3.74.12-3.31.36-7.29.71-11.99.36-4.69.7-8.74,1.04-12.17,9.44-1.33,19.28-2.55,29.5-3.65.11-1.11.22-2.23.33-3.34,2.63-26.05,9.09-45.17,19.34-57.36,10.26-12.19,24.57-18.56,42.93-19.11,6.49-.19,12.67.33,18.54,1.59s12.2,3.22,18.99,5.88c-.77,3.54-1.62,7.47-2.54,11.79-.91,4.32-1.66,8.14-2.22,11.46-4.9-1.94-9.87-3.53-14.91-4.76-5.05-1.23-10.21-1.76-15.48-1.6-11.65.35-20.31,4.32-25.98,11.91-5.66,7.6-9.47,20.95-11.43,40.05-.03.29-.05.57-.08.86.25-.02.51-.05.77-.06,20.64-1.72,81.46-8.19,92.15-8.51,14.07-.42,26.2,1.44,36.39,5.6,10.2,4.15,18.09,10.3,23.66,18.44,5.59,8.15,8.38,17.94,8.39,29.38Z"/>
  <path class="cls-1" d="M333.83,352.99c-6.95-7.94-18.48-14.59-34.6-19.94l-27.18-9.09c-8.56-2.94-14.72-6.35-18.46-10.26-3.75-3.9-5.7-8.6-5.86-14.1-.06-2.13.17-4.14.71-6.04,1.21-4.4,4.03-8.19,8.42-11.4,1.09-.79,2.24-1.52,3.45-2.17l-36.72,1.1c-2,4.13-3.29,8.57-3.85,13.33-.3,2.43-.4,4.93-.33,7.52.19,6.27,1.55,12.28,4.08,18.04,2.54,5.76,6.6,11,12.19,15.72,5.58,4.74,13.06,8.72,22.4,11.97l23.84,8.03c12.34,4.14,21,7.85,26,11.11,4.99,3.26,7.58,8.03,7.77,14.29.22,7.26-3.09,12.48-9.93,15.65-6.84,3.18-15.7,4.92-26.59,5.25-11.98.36-23.86-.94-35.61-3.89-11.75-2.95-22.73-7.25-32.9-12.88-1.66,3.35-3.29,7.01-4.88,10.96-1.59,3.95-3.05,7.71-4.37,11.28,10.97,6.28,23.19,11.21,36.67,14.83,13.48,3.61,27.54,5.2,42.16,4.76,20.67-.62,36.69-4.98,48.05-13.07,11.37-8.1,16.84-19.24,16.42-33.42-.31-10.45-3.94-19.63-10.89-27.57Z"/>
</svg>